<?xml version="1.0" encoding="UTF-8"?>
<svg id="Layer_2" data-name="Layer 2" xmlns="http://www.w3.org/2000/svg" xmlns:xlink="http://www.w3.org/1999/xlink" viewBox="0 0 1444.23 1035.35">
  <defs>
    <style>
      .cls-1 {
        fill: none;
      }

      .cls-1, .cls-2 {
        stroke: #fff;
        stroke-miterlimit: 10;
      }

      .cls-2 {
        fill: url(#linear-gradient);
      }

      .cls-3 {
        fill: #fdcc9a;
        stroke-width: 0px;
      }
    </style>
    <linearGradient id="linear-gradient" x1="723.68" y1="1034.85" x2="723.68" y2="3.38" gradientUnits="userSpaceOnUse">
      <stop offset="0" stop-color="#7d60a9" stop-opacity=".9"/>
      <stop offset=".13" stop-color="#9b7296" stop-opacity=".73"/>
      <stop offset=".3" stop-color="#bd8582" stop-opacity=".54"/>
      <stop offset=".48" stop-color="#d89573" stop-opacity=".39"/>
      <stop offset=".65" stop-color="#eaa067" stop-opacity=".28"/>
      <stop offset=".83" stop-color="#f6a661" stop-opacity=".22"/>
      <stop offset="1" stop-color="#faa95f" stop-opacity=".2"/>
    </linearGradient>
  </defs>
  <g id="Layer_3" data-name="Layer 3">
    <rect class="cls-3" x=".1" width="1442.58" height="1025.65"/>
  </g>
  <g id="Layer_6" data-name="Layer 6">
    <rect class="cls-2" x="3.68" y="3.38" width="1440" height="1031.47"/>
  </g>
  <g id="grid_001">
    <g>
      <polygon class="cls-1" points="362.34 767.83 1083.02 767.83 1442.68 1025.65 2.68 1025.65 362.34 767.83"/>
      <line class="cls-1" x1="38.61" y1="999.89" x2="1406.74" y2="999.89"/>
      <line class="cls-1" x1="71.13" y1="976.58" x2="1374.23" y2="976.58"/>
      <line class="cls-1" x1="100.7" y1="955.38" x2="1344.66" y2="955.38"/>
      <line class="cls-1" x1="127.7" y1="936.03" x2="1317.66" y2="936.03"/>
      <line class="cls-1" x1="152.45" y1="918.28" x2="1292.9" y2="918.28"/>
      <line class="cls-1" x1="175.23" y1="901.96" x2="1270.13" y2="901.96"/>
      <line class="cls-1" x1="196.25" y1="886.89" x2="1249.1" y2="886.89"/>
      <line class="cls-1" x1="215.73" y1="872.93" x2="1229.63" y2="872.93"/>
      <line class="cls-1" x1="233.81" y1="859.97" x2="1211.55" y2="859.97"/>
      <line class="cls-1" x1="250.64" y1="847.9" x2="1194.71" y2="847.9"/>
      <line class="cls-1" x1="266.36" y1="836.63" x2="1179" y2="836.63"/>
      <line class="cls-1" x1="281.06" y1="826.09" x2="1164.29" y2="826.09"/>
      <line class="cls-1" x1="294.85" y1="816.21" x2="1150.51" y2="816.21"/>
      <line class="cls-1" x1="307.8" y1="806.93" x2="1137.56" y2="806.93"/>
      <line class="cls-1" x1="319.99" y1="798.19" x2="1125.37" y2="798.19"/>
      <line class="cls-1" x1="331.48" y1="789.95" x2="1113.88" y2="789.95"/>
      <line class="cls-1" x1="342.34" y1="782.17" x2="1103.02" y2="782.17"/>
      <line class="cls-1" x1="352.61" y1="774.81" x2="1092.75" y2="774.81"/>
      <line class="cls-1" x1="1045.09" y1="767.83" x2="1366.89" y2="1025.65"/>
      <line class="cls-1" x1="1007.16" y1="767.83" x2="1291.1" y2="1025.65"/>
      <line class="cls-1" x1="969.23" y1="767.83" x2="1215.31" y2="1025.65"/>
      <line class="cls-1" x1="931.3" y1="767.83" x2="1139.52" y2="1025.65"/>
      <line class="cls-1" x1="893.37" y1="767.83" x2="1063.73" y2="1025.65"/>
      <line class="cls-1" x1="855.44" y1="767.83" x2="987.94" y2="1025.65"/>
      <line class="cls-1" x1="817.51" y1="767.83" x2="912.15" y2="1025.65"/>
      <line class="cls-1" x1="779.57" y1="767.83" x2="836.36" y2="1025.65"/>
      <line class="cls-1" x1="741.64" y1="767.83" x2="760.57" y2="1025.65"/>
      <line class="cls-1" x1="703.71" y1="767.83" x2="684.78" y2="1025.65"/>
      <line class="cls-1" x1="665.78" y1="767.83" x2="608.99" y2="1025.65"/>
      <line class="cls-1" x1="627.85" y1="767.83" x2="533.2" y2="1025.65"/>
      <line class="cls-1" x1="589.92" y1="767.83" x2="457.42" y2="1025.65"/>
      <line class="cls-1" x1="551.99" y1="767.83" x2="381.63" y2="1025.65"/>
      <line class="cls-1" x1="514.06" y1="767.83" x2="305.84" y2="1025.65"/>
      <line class="cls-1" x1="476.13" y1="767.83" x2="230.05" y2="1025.65"/>
      <line class="cls-1" x1="438.2" y1="767.83" x2="154.26" y2="1025.65"/>
      <line class="cls-1" x1="400.27" y1="767.83" x2="78.47" y2="1025.65"/>
    </g>
    <g>
      <polygon class="cls-1" points="1081.73 301.41 361.04 301.41 1.39 3.38 1441.39 3.38 1081.73 301.41"/>
      <line class="cls-1" x1="1405.45" y1="33.16" x2="37.32" y2="33.16"/>
      <line class="cls-1" x1="1372.93" y1="60.1" x2="69.84" y2="60.1"/>
      <line class="cls-1" x1="1343.37" y1="84.6" x2="99.41" y2="84.6"/>
      <line class="cls-1" x1="1316.37" y1="106.98" x2="126.41" y2="106.98"/>
      <line class="cls-1" x1="1291.61" y1="127.49" x2="151.16" y2="127.49"/>
      <line class="cls-1" x1="1268.84" y1="146.36" x2="173.94" y2="146.36"/>
      <line class="cls-1" x1="1247.81" y1="163.79" x2="194.96" y2="163.79"/>
      <line class="cls-1" x1="1228.34" y1="179.92" x2="214.43" y2="179.92"/>
      <line class="cls-1" x1="1210.26" y1="194.9" x2="232.52" y2="194.9"/>
      <line class="cls-1" x1="1193.42" y1="208.85" x2="249.35" y2="208.85"/>
      <line class="cls-1" x1="1177.71" y1="221.88" x2="265.07" y2="221.88"/>
      <line class="cls-1" x1="1163" y1="234.06" x2="279.77" y2="234.06"/>
      <line class="cls-1" x1="1149.22" y1="245.48" x2="293.56" y2="245.48"/>
      <line class="cls-1" x1="1136.27" y1="256.21" x2="306.51" y2="256.21"/>
      <line class="cls-1" x1="1124.08" y1="266.32" x2="318.7" y2="266.32"/>
      <line class="cls-1" x1="1112.58" y1="275.84" x2="330.19" y2="275.84"/>
      <line class="cls-1" x1="1101.73" y1="284.83" x2="341.04" y2="284.83"/>
      <line class="cls-1" x1="1091.46" y1="293.34" x2="351.31" y2="293.34"/>
      <line class="cls-1" x1="398.97" y1="301.41" x2="77.18" y2="3.38"/>
      <line class="cls-1" x1="436.91" y1="301.41" x2="152.97" y2="3.38"/>
      <line class="cls-1" x1="474.84" y1="301.41" x2="228.76" y2="3.38"/>
      <line class="cls-1" x1="512.77" y1="301.41" x2="304.54" y2="3.38"/>
      <line class="cls-1" x1="550.7" y1="301.41" x2="380.33" y2="3.38"/>
      <line class="cls-1" x1="588.63" y1="301.41" x2="456.12" y2="3.38"/>
      <line class="cls-1" x1="626.56" y1="301.41" x2="531.91" y2="3.38"/>
      <line class="cls-1" x1="664.49" y1="301.41" x2="607.7" y2="3.38"/>
      <line class="cls-1" x1="702.42" y1="301.41" x2="683.49" y2="3.38"/>
      <line class="cls-1" x1="740.35" y1="301.41" x2="759.28" y2="3.38"/>
      <line class="cls-1" x1="778.28" y1="301.41" x2="835.07" y2="3.38"/>
      <line class="cls-1" x1="816.21" y1="301.41" x2="910.86" y2="3.38"/>
      <line class="cls-1" x1="854.15" y1="301.41" x2="986.65" y2="3.38"/>
      <line class="cls-1" x1="892.08" y1="301.41" x2="1062.44" y2="3.38"/>
      <line class="cls-1" x1="930.01" y1="301.41" x2="1138.23" y2="3.38"/>
      <line class="cls-1" x1="967.94" y1="301.41" x2="1214.02" y2="3.38"/>
      <line class="cls-1" x1="1005.87" y1="301.41" x2="1289.81" y2="3.38"/>
      <line class="cls-1" x1="1043.8" y1="301.41" x2="1365.6" y2="3.38"/>
    </g>
  </g>
</svg>