<?xml version="1.0" encoding="UTF-8"?>
<svg id="Layer_2" data-name="Layer 2" xmlns="http://www.w3.org/2000/svg" viewBox="0 0 65.85 65.85">
  <defs>
    <style>
      .cls-1 {
        stroke-miterlimit: 10;
      }

      .cls-1, .cls-2 {
        stroke-width: 2px;
      }

      .cls-1, .cls-2, .cls-3, .cls-4 {
        stroke: #341a1a;
      }

      .cls-1, .cls-3, .cls-4 {
        fill: #943099;
      }

      .cls-2 {
        fill: #fff;
      }

      .cls-2, .cls-3, .cls-4 {
        stroke-linecap: round;
        stroke-linejoin: round;
      }

      .cls-4 {
        stroke-width: .5px;
      }
    </style>
  </defs>
  <g id="OBJECTS">
    <g>
      <polygon class="cls-1" points="48.32 1 1 1 1 64.85 64.85 64.85 64.85 12.62 48.32 1"/>
      <path class="cls-1" d="m11.58,1h33.21v18.04c0,.63-.51,1.15-1.15,1.15H11.58V1h0Z"/>
      <rect class="cls-1" x="11.58" y="28.61" width="33.21" height="36.24"/>
      <rect class="cls-2" x="19.72" y="1" width="25.08" height="19.19"/>
      <rect class="cls-2" x="11.58" y="36.03" width="33.21" height="28.82"/>
      <line class="cls-3" x1="15.21" y1="43.57" x2="41.17" y2="43.57"/>
      <line class="cls-3" x1="15.21" y1="48.5" x2="41.17" y2="48.5"/>
      <line class="cls-3" x1="15.21" y1="53.42" x2="41.17" y2="53.42"/>
      <line class="cls-3" x1="15.21" y1="58.35" x2="41.17" y2="58.35"/>
      <g>
        <line class="cls-4" x1="57.4" y1="19.74" x2="61.41" y2="17.26"/>
        <line class="cls-4" x1="57.4" y1="23.07" x2="61.41" y2="20.59"/>
        <line class="cls-4" x1="57.4" y1="26.4" x2="61.41" y2="23.92"/>
        <line class="cls-4" x1="57.4" y1="29.73" x2="61.41" y2="27.25"/>
        <line class="cls-4" x1="57.4" y1="33.07" x2="61.41" y2="30.58"/>
        <line class="cls-4" x1="57.4" y1="36.4" x2="61.41" y2="33.92"/>
        <line class="cls-4" x1="57.4" y1="39.73" x2="61.41" y2="37.25"/>
        <line class="cls-4" x1="57.4" y1="43.06" x2="61.41" y2="40.58"/>
        <line class="cls-4" x1="57.4" y1="46.39" x2="61.41" y2="43.91"/>
        <line class="cls-4" x1="57.4" y1="49.72" x2="61.41" y2="47.24"/>
        <line class="cls-4" x1="57.4" y1="53.06" x2="61.41" y2="50.57"/>
        <line class="cls-4" x1="57.4" y1="56.39" x2="61.41" y2="53.91"/>
        <line class="cls-4" x1="57.4" y1="59.72" x2="61.41" y2="57.24"/>
        <line class="cls-4" x1="57.4" y1="63.05" x2="61.41" y2="60.57"/>
      </g>
    </g>
  </g>
</svg>