<?xml version="1.0" encoding="UTF-8"?>
<svg id="Layer_2" data-name="Layer 2" xmlns="http://www.w3.org/2000/svg" viewBox="0 0 135.28 112.35">
  <defs>
    <style>
      .cls-1, .cls-2, .cls-3 {
        stroke-width: 0px;
      }

      .cls-1, .cls-4 {
        fill: #6052a2;
      }

      .cls-2 {
        fill: #fff;
      }

      .cls-3 {
        fill: #7d71b4;
      }

      .cls-4 {
        stroke: #000;
        stroke-miterlimit: 10;
        stroke-width: .5px;
      }
    </style>
  </defs>
  <g id="Layer_1-2" data-name="Layer 1">
    <path class="cls-4" d="m9.04.25C4.22.25.25,3.86.25,8.24v95.87c0,4.38,3.97,7.99,8.79,7.99h117.2c4.82,0,8.79-3.61,8.79-7.99V18.89c0-4.38-3.97-7.99-8.79-7.99H47.13c.25,0-.09,0-.81-.75-.72-.75-1.6-1.99-2.52-3.33s-1.89-2.76-3.1-4.01-2.89-2.56-5.29-2.56H9.04Z"/>
    <path class="cls-3" d="m9.04,6.83h26.37c-.18,0,.18.02.9.63.73.61,1.61,1.63,2.52,2.72s1.87,2.25,3.06,3.28,2.83,2.12,5.24,2.12h79.11c1.65,0,2.93.95,2.93,2.18v4.78c-.92-.25-1.9-.41-2.93-.41H9.04c-1.03,0-2.01.16-2.93.41v-13.52c0-1.23,1.28-2.18,2.93-2.18Z"/>
    <rect class="cls-2" x="7.61" y="14.68" width="121.43" height="73.84"/>
    <rect class="cls-1" x="5.58" y="22.53" width="125.49" height="73.84"/>
  </g>
</svg>